<mxfile host="65bd71144e">
    <diagram id="6jTpIerfk7VuHWznfsoa" name="第 1 页">
        <mxGraphModel dx="1686" dy="1061" grid="1" gridSize="10" guides="1" tooltips="1" connect="1" arrows="1" fold="1" page="1" pageScale="1" pageWidth="827" pageHeight="1169" math="0" shadow="0">
            <root>
                <mxCell id="0"/>
                <mxCell id="1" parent="0"/>
                <mxCell id="4" value="RUST_LOG" style="rounded=0;whiteSpace=wrap;html=1;fontColor=#FF0000;fontSize=12;" vertex="1" parent="1">
                    <mxGeometry x="430" y="450" width="140" height="30" as="geometry"/>
                </mxCell>
                <mxCell id="7" value="取值: always, auto, never&amp;nbsp;" style="rounded=0;whiteSpace=wrap;html=1;fontSize=12;" vertex="1" parent="1">
                    <mxGeometry x="310" y="660" width="260" height="30" as="geometry"/>
                </mxCell>
                <mxCell id="9" value="filter::Builder" style="rounded=0;whiteSpace=wrap;html=1;fontSize=13;" vertex="1" parent="1">
                    <mxGeometry x="110" y="850" width="120" height="60" as="geometry"/>
                </mxCell>
                <mxCell id="10" value="writer::Builder" style="rounded=0;whiteSpace=wrap;html=1;" vertex="1" parent="1">
                    <mxGeometry x="60" y="160" width="120" height="30" as="geometry"/>
                </mxCell>
                <mxCell id="11" value="crate::Env" style="rounded=0;whiteSpace=wrap;html=1;fillColor=#a20025;fontColor=#ffffff;strokeColor=#6F0000;fontSize=13;" vertex="1" parent="1">
                    <mxGeometry x="110" y="470" width="120" height="60" as="geometry"/>
                </mxCell>
                <mxCell id="12" value="filter" style="rounded=0;whiteSpace=wrap;html=1;fillColor=#f8cecc;strokeColor=#b85450;fontSize=13;" vertex="1" parent="1">
                    <mxGeometry x="110" y="530" width="120" height="30" as="geometry"/>
                </mxCell>
                <mxCell id="13" value="write_style" style="rounded=0;whiteSpace=wrap;html=1;fillColor=#f8cecc;strokeColor=#b85450;fontSize=13;" vertex="1" parent="1">
                    <mxGeometry x="110" y="560" width="120" height="30" as="geometry"/>
                </mxCell>
                <mxCell id="20" value="默认KEY" style="rounded=0;whiteSpace=wrap;html=1;fontSize=12;" vertex="1" parent="1">
                    <mxGeometry x="310" y="450" width="120" height="30" as="geometry"/>
                </mxCell>
                <mxCell id="21" value="自定义KEY创建" style="rounded=0;whiteSpace=wrap;html=1;fontSize=12;" vertex="1" parent="1">
                    <mxGeometry x="310" y="420" width="120" height="30" as="geometry"/>
                </mxCell>
                <mxCell id="22" value="filter&lt;br style=&quot;font-size: 12px;&quot;&gt;filter_or" style="rounded=0;whiteSpace=wrap;html=1;fontSize=12;" vertex="1" parent="1">
                    <mxGeometry x="430" y="420" width="140" height="30" as="geometry"/>
                </mxCell>
                <mxCell id="24" value="RUST_COLOR_STYLE" style="rounded=0;whiteSpace=wrap;html=1;fontColor=#FF0000;fontSize=12;" vertex="1" parent="1">
                    <mxGeometry x="430" y="600" width="140" height="30" as="geometry"/>
                </mxCell>
                <mxCell id="25" value="默认KEY" style="rounded=0;whiteSpace=wrap;html=1;fontSize=12;" vertex="1" parent="1">
                    <mxGeometry x="310" y="600" width="120" height="30" as="geometry"/>
                </mxCell>
                <mxCell id="26" value="自定义KEY创建" style="rounded=0;whiteSpace=wrap;html=1;fontSize=12;" vertex="1" parent="1">
                    <mxGeometry x="310" y="630" width="120" height="30" as="geometry"/>
                </mxCell>
                <mxCell id="27" value="wirte_style&lt;br style=&quot;border-color: var(--border-color); font-size: 12px;&quot;&gt;&amp;nbsp;write_style_ror" style="rounded=0;whiteSpace=wrap;html=1;fontSize=12;" vertex="1" parent="1">
                    <mxGeometry x="430" y="630" width="140" height="30" as="geometry"/>
                </mxCell>
                <mxCell id="28" value="日志过滤" style="endArrow=none;dashed=1;html=1;entryX=0;entryY=1;entryDx=0;entryDy=0;exitX=1;exitY=0.5;exitDx=0;exitDy=0;fontSize=13;" edge="1" parent="1" source="12" target="21">
                    <mxGeometry width="50" height="50" relative="1" as="geometry">
                        <mxPoint x="420" y="700" as="sourcePoint"/>
                        <mxPoint x="470" y="650" as="targetPoint"/>
                    </mxGeometry>
                </mxCell>
                <mxCell id="29" value="打印风格" style="endArrow=none;dashed=1;html=1;entryX=1;entryY=0.5;entryDx=0;entryDy=0;exitX=0;exitY=0;exitDx=0;exitDy=0;fontSize=13;" edge="1" parent="1" source="26" target="13">
                    <mxGeometry width="50" height="50" relative="1" as="geometry">
                        <mxPoint x="420" y="700" as="sourcePoint"/>
                        <mxPoint x="470" y="650" as="targetPoint"/>
                    </mxGeometry>
                </mxCell>
                <mxCell id="30" value="new,&lt;br style=&quot;font-size: 12px;&quot;&gt;default_filter_or&lt;br style=&quot;font-size: 12px;&quot;&gt;&amp;nbsp;default_write_style_or" style="rounded=0;whiteSpace=wrap;html=1;fontSize=12;" vertex="1" parent="1">
                    <mxGeometry x="430" y="510" width="140" height="60" as="geometry"/>
                </mxCell>
                <mxCell id="33" value="默认KEY创建" style="rounded=0;whiteSpace=wrap;html=1;fontSize=12;" vertex="1" parent="1">
                    <mxGeometry x="310" y="510" width="120" height="60" as="geometry"/>
                </mxCell>
                <mxCell id="34" value="" style="endArrow=classic;html=1;entryX=0.5;entryY=1;entryDx=0;entryDy=0;exitX=0.5;exitY=0;exitDx=0;exitDy=0;fontSize=12;" edge="1" parent="1" source="30" target="4">
                    <mxGeometry width="50" height="50" relative="1" as="geometry">
                        <mxPoint x="580" y="490" as="sourcePoint"/>
                        <mxPoint x="490" y="650" as="targetPoint"/>
                    </mxGeometry>
                </mxCell>
                <mxCell id="35" value="" style="endArrow=classic;html=1;exitX=0.5;exitY=1;exitDx=0;exitDy=0;entryX=0.5;entryY=0;entryDx=0;entryDy=0;fontSize=12;" edge="1" parent="1" source="30" target="24">
                    <mxGeometry width="50" height="50" relative="1" as="geometry">
                        <mxPoint x="440" y="700" as="sourcePoint"/>
                        <mxPoint x="600" y="570" as="targetPoint"/>
                    </mxGeometry>
                </mxCell>
                <mxCell id="36" value="from_env" style="rounded=0;whiteSpace=wrap;html=1;fontSize=13;" vertex="1" parent="1">
                    <mxGeometry x="310" y="790" width="80" height="40" as="geometry"/>
                </mxCell>
                <mxCell id="37" value="new" style="rounded=0;whiteSpace=wrap;html=1;fontSize=13;" vertex="1" parent="1">
                    <mxGeometry x="310" y="860" width="80" height="40" as="geometry"/>
                </mxCell>
                <mxCell id="38" value="parse" style="rounded=0;whiteSpace=wrap;html=1;fontSize=13;" vertex="1" parent="1">
                    <mxGeometry x="310" y="930" width="80" height="40" as="geometry"/>
                </mxCell>
                <mxCell id="39" value="" style="endArrow=none;dashed=1;html=1;entryX=0;entryY=0.5;entryDx=0;entryDy=0;fontSize=13;" edge="1" parent="1" target="36">
                    <mxGeometry width="50" height="50" relative="1" as="geometry">
                        <mxPoint x="230" y="880" as="sourcePoint"/>
                        <mxPoint x="490" y="740" as="targetPoint"/>
                    </mxGeometry>
                </mxCell>
                <mxCell id="40" value="" style="endArrow=none;dashed=1;html=1;entryX=0;entryY=0.5;entryDx=0;entryDy=0;exitX=1;exitY=0.5;exitDx=0;exitDy=0;fontSize=13;" edge="1" parent="1" source="9" target="37">
                    <mxGeometry width="50" height="50" relative="1" as="geometry">
                        <mxPoint x="240" y="890" as="sourcePoint"/>
                        <mxPoint x="320" y="810" as="targetPoint"/>
                    </mxGeometry>
                </mxCell>
                <mxCell id="41" value="" style="endArrow=none;dashed=1;html=1;entryX=0;entryY=0.5;entryDx=0;entryDy=0;exitX=1;exitY=0.5;exitDx=0;exitDy=0;fontSize=13;" edge="1" parent="1" source="9" target="38">
                    <mxGeometry width="50" height="50" relative="1" as="geometry">
                        <mxPoint x="240" y="890" as="sourcePoint"/>
                        <mxPoint x="320" y="890" as="targetPoint"/>
                    </mxGeometry>
                </mxCell>
                <mxCell id="42" value="filter" style="rounded=0;whiteSpace=wrap;html=1;fontSize=13;" vertex="1" parent="1">
                    <mxGeometry x="490" y="860" width="80" height="40" as="geometry"/>
                </mxCell>
                <mxCell id="43" value="filter_level" style="rounded=0;whiteSpace=wrap;html=1;fontSize=13;" vertex="1" parent="1">
                    <mxGeometry x="490" y="790" width="80" height="40" as="geometry"/>
                </mxCell>
                <mxCell id="44" value="filter_module" style="rounded=0;whiteSpace=wrap;html=1;fontSize=13;" vertex="1" parent="1">
                    <mxGeometry x="490" y="930" width="80" height="40" as="geometry"/>
                </mxCell>
                <mxCell id="45" value="Filter" style="rounded=0;whiteSpace=wrap;html=1;fillColor=#a20025;fontColor=#ffffff;strokeColor=#6F0000;fontStyle=1;fontSize=13;" vertex="1" parent="1">
                    <mxGeometry x="650" y="850" width="120" height="60" as="geometry"/>
                </mxCell>
                <mxCell id="46" value="build()" style="endArrow=none;dashed=1;html=1;entryX=0;entryY=0.5;entryDx=0;entryDy=0;exitX=1;exitY=0.5;exitDx=0;exitDy=0;fontSize=13;" edge="1" parent="1" source="42" target="45">
                    <mxGeometry width="50" height="50" relative="1" as="geometry">
                        <mxPoint x="540" y="790" as="sourcePoint"/>
                        <mxPoint x="590" y="740" as="targetPoint"/>
                    </mxGeometry>
                </mxCell>
                <mxCell id="48" value="Env" style="rounded=0;whiteSpace=wrap;html=1;fillColor=#a20025;fontColor=#ffffff;strokeColor=#6F0000;fontStyle=1;fontSize=13;" vertex="1" parent="1">
                    <mxGeometry x="650" y="510" width="120" height="60" as="geometry"/>
                </mxCell>
                <mxCell id="49" value="" style="endArrow=none;dashed=1;html=1;entryX=0;entryY=0.5;entryDx=0;entryDy=0;exitX=1;exitY=0.5;exitDx=0;exitDy=0;fontSize=13;" edge="1" parent="1" source="30" target="48">
                    <mxGeometry width="50" height="50" relative="1" as="geometry">
                        <mxPoint x="440" y="790" as="sourcePoint"/>
                        <mxPoint x="490" y="740" as="targetPoint"/>
                    </mxGeometry>
                </mxCell>
                <mxCell id="50" value="" style="endArrow=none;dashed=1;html=1;entryX=1;entryY=0.5;entryDx=0;entryDy=0;exitX=0;exitY=0.5;exitDx=0;exitDy=0;fontSize=13;" edge="1" parent="1" source="48" target="22">
                    <mxGeometry width="50" height="50" relative="1" as="geometry">
                        <mxPoint x="440" y="790" as="sourcePoint"/>
                        <mxPoint x="490" y="740" as="targetPoint"/>
                    </mxGeometry>
                </mxCell>
                <mxCell id="51" value="" style="endArrow=none;dashed=1;html=1;entryX=1;entryY=0.5;entryDx=0;entryDy=0;exitX=0;exitY=0.5;exitDx=0;exitDy=0;fontSize=13;" edge="1" parent="1" source="48" target="27">
                    <mxGeometry width="50" height="50" relative="1" as="geometry">
                        <mxPoint x="440" y="790" as="sourcePoint"/>
                        <mxPoint x="490" y="740" as="targetPoint"/>
                    </mxGeometry>
                </mxCell>
                <mxCell id="52" value="Builder" style="rounded=0;whiteSpace=wrap;html=1;fontSize=13;" vertex="1" parent="1">
                    <mxGeometry x="405" y="850" width="70" height="60" as="geometry"/>
                </mxCell>
                <mxCell id="53" value="" style="endArrow=none;dashed=1;html=1;exitX=1;exitY=0.5;exitDx=0;exitDy=0;entryX=0;entryY=0;entryDx=0;entryDy=0;fontSize=13;" edge="1" parent="1" source="36" target="52">
                    <mxGeometry width="50" height="50" relative="1" as="geometry">
                        <mxPoint x="410" y="790" as="sourcePoint"/>
                        <mxPoint x="460" y="740" as="targetPoint"/>
                    </mxGeometry>
                </mxCell>
                <mxCell id="55" value="" style="endArrow=none;dashed=1;html=1;exitX=1;exitY=0;exitDx=0;exitDy=0;entryX=0;entryY=1;entryDx=0;entryDy=0;fontSize=13;" edge="1" parent="1" source="38" target="52">
                    <mxGeometry width="50" height="50" relative="1" as="geometry">
                        <mxPoint x="410" y="790" as="sourcePoint"/>
                        <mxPoint x="460" y="740" as="targetPoint"/>
                    </mxGeometry>
                </mxCell>
                <mxCell id="56" value="" style="endArrow=none;dashed=1;html=1;entryX=0;entryY=0.5;entryDx=0;entryDy=0;exitX=1;exitY=0;exitDx=0;exitDy=0;fontSize=13;" edge="1" parent="1" source="52" target="43">
                    <mxGeometry width="50" height="50" relative="1" as="geometry">
                        <mxPoint x="410" y="790" as="sourcePoint"/>
                        <mxPoint x="460" y="740" as="targetPoint"/>
                    </mxGeometry>
                </mxCell>
                <mxCell id="57" value="" style="endArrow=none;dashed=1;html=1;exitX=1;exitY=1;exitDx=0;exitDy=0;entryX=0;entryY=0;entryDx=0;entryDy=0;fontSize=13;" edge="1" parent="1" source="52" target="44">
                    <mxGeometry width="50" height="50" relative="1" as="geometry">
                        <mxPoint x="410" y="790" as="sourcePoint"/>
                        <mxPoint x="460" y="740" as="targetPoint"/>
                    </mxGeometry>
                </mxCell>
                <mxCell id="58" value="" style="endArrow=none;dashed=1;html=1;entryX=1;entryY=0.5;entryDx=0;entryDy=0;exitX=0;exitY=0.5;exitDx=0;exitDy=0;fontSize=13;" edge="1" parent="1" source="45" target="43">
                    <mxGeometry width="50" height="50" relative="1" as="geometry">
                        <mxPoint x="410" y="790" as="sourcePoint"/>
                        <mxPoint x="460" y="740" as="targetPoint"/>
                    </mxGeometry>
                </mxCell>
                <mxCell id="59" value="" style="endArrow=none;dashed=1;html=1;entryX=0;entryY=0.5;entryDx=0;entryDy=0;exitX=1;exitY=0.5;exitDx=0;exitDy=0;fontSize=13;" edge="1" parent="1" source="44" target="45">
                    <mxGeometry width="50" height="50" relative="1" as="geometry">
                        <mxPoint x="410" y="790" as="sourcePoint"/>
                        <mxPoint x="460" y="740" as="targetPoint"/>
                    </mxGeometry>
                </mxCell>
                <mxCell id="60" value="" style="endArrow=none;dashed=1;html=1;exitX=1;exitY=0.5;exitDx=0;exitDy=0;entryX=0;entryY=0.5;entryDx=0;entryDy=0;fontSize=13;" edge="1" parent="1" source="37" target="52">
                    <mxGeometry width="50" height="50" relative="1" as="geometry">
                        <mxPoint x="410" y="790" as="sourcePoint"/>
                        <mxPoint x="460" y="740" as="targetPoint"/>
                    </mxGeometry>
                </mxCell>
                <mxCell id="61" value="" style="endArrow=none;dashed=1;html=1;exitX=1;exitY=0.5;exitDx=0;exitDy=0;entryX=0;entryY=0.5;entryDx=0;entryDy=0;fontSize=13;" edge="1" parent="1" source="52" target="42">
                    <mxGeometry width="50" height="50" relative="1" as="geometry">
                        <mxPoint x="410" y="790" as="sourcePoint"/>
                        <mxPoint x="460" y="740" as="targetPoint"/>
                    </mxGeometry>
                </mxCell>
                <mxCell id="62" value="filter::Builder" style="rounded=0;whiteSpace=wrap;html=1;fillColor=#a20025;fontColor=#ffffff;strokeColor=#6F0000;fontStyle=1;fontSize=13;" vertex="1" parent="1">
                    <mxGeometry x="110" y="850" width="120" height="60" as="geometry"/>
                </mxCell>
                <mxCell id="63" value="Builder" style="rounded=0;whiteSpace=wrap;html=1;fillColor=#a20025;fontColor=#ffffff;strokeColor=#6F0000;fontStyle=1;fontSize=13;" vertex="1" parent="1">
                    <mxGeometry x="405" y="850" width="70" height="60" as="geometry"/>
                </mxCell>
                <mxCell id="64" value="" style="endArrow=classic;html=1;exitX=0.5;exitY=1;exitDx=0;exitDy=0;entryX=0.5;entryY=0;entryDx=0;entryDy=0;fontSize=13;" edge="1" parent="1" source="48" target="36">
                    <mxGeometry width="50" height="50" relative="1" as="geometry">
                        <mxPoint x="420" y="700" as="sourcePoint"/>
                        <mxPoint x="470" y="650" as="targetPoint"/>
                        <Array as="points">
                            <mxPoint x="710" y="750"/>
                            <mxPoint x="350" y="750"/>
                        </Array>
                    </mxGeometry>
                </mxCell>
                <mxCell id="65" value="传入" style="edgeLabel;html=1;align=center;verticalAlign=middle;resizable=0;points=[];fontSize=13;" vertex="1" connectable="0" parent="64">
                    <mxGeometry x="-0.1452" relative="1" as="geometry">
                        <mxPoint as="offset"/>
                    </mxGeometry>
                </mxCell>
                <mxCell id="66" value="matches(record)" style="rounded=0;whiteSpace=wrap;html=1;fontColor=#CC6600;fontSize=13;" vertex="1" parent="1">
                    <mxGeometry x="650" y="910" width="120" height="30" as="geometry"/>
                </mxCell>
                <mxCell id="67" value="env_logger::Builder" style="rounded=0;whiteSpace=wrap;html=1;fontColor=#ffffff;fillColor=#a20025;strokeColor=#6F0000;fontStyle=1" vertex="1" parent="1">
                    <mxGeometry x="60" y="70" width="120" height="60" as="geometry"/>
                </mxCell>
                <mxCell id="68" value="fmt;:Builder" style="rounded=0;whiteSpace=wrap;html=1;" vertex="1" parent="1">
                    <mxGeometry x="60" y="130" width="120" height="30" as="geometry"/>
                </mxCell>
                <mxCell id="70" value="filter::Builder" style="rounded=0;whiteSpace=wrap;html=1;" vertex="1" parent="1">
                    <mxGeometry x="60" y="190" width="120" height="30" as="geometry"/>
                </mxCell>
                <mxCell id="71" value="&lt;div&gt;parse_*&lt;/div&gt;&lt;div&gt;从各种途径读取配置&lt;/div&gt;" style="rounded=0;whiteSpace=wrap;html=1;fontColor=#CC6600;" vertex="1" parent="1">
                    <mxGeometry x="354" y="190" width="120" height="60" as="geometry"/>
                </mxCell>
                <mxCell id="72" value="Logger" style="rounded=0;whiteSpace=wrap;html=1;fontColor=#ffffff;fillColor=#a20025;strokeColor=#6F0000;fontStyle=1" vertex="1" parent="1">
                    <mxGeometry x="514" y="70" width="120" height="60" as="geometry"/>
                </mxCell>
                <mxCell id="73" value="from_env&lt;br&gt;new" style="rounded=0;whiteSpace=wrap;html=1;fontColor=#CC6600;" vertex="1" parent="1">
                    <mxGeometry x="194" y="125" width="120" height="60" as="geometry"/>
                </mxCell>
                <mxCell id="74" value="&lt;div&gt;format&lt;/div&gt;&lt;div&gt;自定义输出格式&lt;/div&gt;" style="rounded=0;whiteSpace=wrap;html=1;fontColor=#CC6600;" vertex="1" parent="1">
                    <mxGeometry x="354" y="70" width="120" height="60" as="geometry"/>
                </mxCell>
                <mxCell id="75" value="&lt;div&gt;format_*&lt;/div&gt;&lt;div&gt;格式化记录字段&lt;/div&gt;" style="rounded=0;whiteSpace=wrap;html=1;fontColor=#CC6600;" vertex="1" parent="1">
                    <mxGeometry x="354" y="130" width="120" height="60" as="geometry"/>
                </mxCell>
                <mxCell id="81" value="" style="endArrow=none;dashed=1;html=1;fontColor=#CC6600;entryX=0;entryY=0;entryDx=0;entryDy=0;exitX=1;exitY=0.5;exitDx=0;exitDy=0;" edge="1" parent="1" target="74">
                    <mxGeometry width="50" height="50" relative="1" as="geometry">
                        <mxPoint x="314" y="160" as="sourcePoint"/>
                        <mxPoint x="614" y="410" as="targetPoint"/>
                    </mxGeometry>
                </mxCell>
                <mxCell id="82" value="" style="endArrow=none;dashed=1;html=1;fontColor=#CC6600;entryX=1;entryY=0.5;entryDx=0;entryDy=0;exitX=0;exitY=0.5;exitDx=0;exitDy=0;" edge="1" parent="1" source="75">
                    <mxGeometry width="50" height="50" relative="1" as="geometry">
                        <mxPoint x="564" y="460" as="sourcePoint"/>
                        <mxPoint x="314" y="160" as="targetPoint"/>
                    </mxGeometry>
                </mxCell>
                <mxCell id="83" value="buid()" style="endArrow=none;dashed=1;html=1;fontColor=#CC6600;entryX=0;entryY=0.5;entryDx=0;entryDy=0;exitX=1;exitY=0;exitDx=0;exitDy=0;" edge="1" parent="1" source="74" target="72">
                    <mxGeometry width="50" height="50" relative="1" as="geometry">
                        <mxPoint x="480" y="155" as="sourcePoint"/>
                        <mxPoint x="614" y="430" as="targetPoint"/>
                        <mxPoint as="offset"/>
                    </mxGeometry>
                </mxCell>
                <mxCell id="84" value="log库&lt;br style=&quot;font-size: 13px;&quot;&gt;&lt;b style=&quot;font-size: 13px;&quot;&gt;&lt;font color=&quot;#ff0000&quot; style=&quot;font-size: 13px;&quot;&gt;static LOGGER = make_logger()&lt;/font&gt;&lt;/b&gt;" style="rounded=0;whiteSpace=wrap;html=1;fontColor=#CC6600;fontSize=13;" vertex="1" parent="1">
                    <mxGeometry x="514" y="305" width="120" height="60" as="geometry"/>
                </mxCell>
                <mxCell id="86" value="" style="endArrow=classic;html=1;fontColor=#CC6600;exitX=0.5;exitY=1;exitDx=0;exitDy=0;entryX=0.5;entryY=0;entryDx=0;entryDy=0;" edge="1" parent="1" source="72" target="107">
                    <mxGeometry width="50" height="50" relative="1" as="geometry">
                        <mxPoint x="574" y="220" as="sourcePoint"/>
                        <mxPoint x="574" y="280" as="targetPoint"/>
                    </mxGeometry>
                </mxCell>
                <mxCell id="90" value="trace!" style="rounded=0;whiteSpace=wrap;html=1;fontColor=#FF0000;" vertex="1" parent="1">
                    <mxGeometry x="670" y="70" width="100" height="30" as="geometry"/>
                </mxCell>
                <mxCell id="91" value="debug!" style="rounded=0;whiteSpace=wrap;html=1;fillColor=#d5e8d4;strokeColor=#82b366;" vertex="1" parent="1">
                    <mxGeometry x="670" y="100" width="100" height="30" as="geometry"/>
                </mxCell>
                <mxCell id="92" value="info!" style="rounded=0;whiteSpace=wrap;html=1;fillColor=#d5e8d4;strokeColor=#82b366;" vertex="1" parent="1">
                    <mxGeometry x="670" y="130" width="100" height="30" as="geometry"/>
                </mxCell>
                <mxCell id="93" value="warn!" style="rounded=0;whiteSpace=wrap;html=1;fontColor=#FF0000;" vertex="1" parent="1">
                    <mxGeometry x="670" y="160" width="100" height="30" as="geometry"/>
                </mxCell>
                <mxCell id="94" value="error!" style="rounded=0;whiteSpace=wrap;html=1;fillColor=#d5e8d4;strokeColor=#82b366;" vertex="1" parent="1">
                    <mxGeometry x="670" y="190" width="100" height="30" as="geometry"/>
                </mxCell>
                <mxCell id="95" value="log_enabled!" style="rounded=0;whiteSpace=wrap;html=1;fillColor=#d5e8d4;strokeColor=#82b366;fontSize=13;" vertex="1" parent="1">
                    <mxGeometry x="670" y="335" width="100" height="30" as="geometry"/>
                </mxCell>
                <mxCell id="96" value="" style="endArrow=none;dashed=1;html=1;fontColor=#FF0000;entryX=0;entryY=1;entryDx=0;entryDy=0;exitX=1;exitY=0.5;exitDx=0;exitDy=0;" edge="1" parent="1" source="84" target="92">
                    <mxGeometry width="50" height="50" relative="1" as="geometry">
                        <mxPoint x="470" y="555" as="sourcePoint"/>
                        <mxPoint x="520" y="505" as="targetPoint"/>
                    </mxGeometry>
                </mxCell>
                <mxCell id="97" value="" style="endArrow=none;dashed=1;html=1;fontColor=#FF0000;entryX=1;entryY=0.5;entryDx=0;entryDy=0;exitX=0;exitY=0.5;exitDx=0;exitDy=0;fontSize=13;" edge="1" parent="1" source="95" target="84">
                    <mxGeometry width="50" height="50" relative="1" as="geometry">
                        <mxPoint x="470" y="555" as="sourcePoint"/>
                        <mxPoint x="520" y="505" as="targetPoint"/>
                    </mxGeometry>
                </mxCell>
                <mxCell id="100" value="log库&lt;br style=&quot;font-size: 13px;&quot;&gt;&lt;b style=&quot;font-size: 13px;&quot;&gt;&lt;font color=&quot;#ff0000&quot; style=&quot;font-size: 13px;&quot;&gt;static LOGGER = make_logger()&lt;/font&gt;&lt;/b&gt;" style="rounded=0;whiteSpace=wrap;html=1;fontColor=#CC6600;fontSize=13;" vertex="1" parent="1">
                    <mxGeometry x="514" y="305" width="120" height="60" as="geometry"/>
                </mxCell>
                <mxCell id="101" value="trace!" style="rounded=0;whiteSpace=wrap;html=1;fontColor=#FF0000;" vertex="1" parent="1">
                    <mxGeometry x="670" y="70" width="100" height="30" as="geometry"/>
                </mxCell>
                <mxCell id="102" value="log库&lt;br style=&quot;font-size: 13px;&quot;&gt;&lt;b style=&quot;font-size: 13px;&quot;&gt;&lt;font color=&quot;#ff0000&quot; style=&quot;font-size: 13px;&quot;&gt;static LOGGER = make_logger()&lt;/font&gt;&lt;/b&gt;" style="rounded=0;whiteSpace=wrap;html=1;fontColor=#CC6600;fontSize=13;" vertex="1" parent="1">
                    <mxGeometry x="514" y="305" width="120" height="60" as="geometry"/>
                </mxCell>
                <mxCell id="103" value="trace!" style="rounded=0;whiteSpace=wrap;html=1;fontColor=#FF0000;" vertex="1" parent="1">
                    <mxGeometry x="670" y="70" width="100" height="30" as="geometry"/>
                </mxCell>
                <mxCell id="104" value="log库&lt;br style=&quot;font-size: 13px;&quot;&gt;&lt;b style=&quot;font-size: 13px;&quot;&gt;&lt;font color=&quot;#ff0000&quot; style=&quot;font-size: 13px;&quot;&gt;static LOGGER = make_logger()&lt;/font&gt;&lt;/b&gt;" style="rounded=0;whiteSpace=wrap;html=1;fontColor=#CC6600;fontSize=13;" vertex="1" parent="1">
                    <mxGeometry x="514" y="305" width="120" height="60" as="geometry"/>
                </mxCell>
                <mxCell id="105" value="trace!" style="rounded=0;whiteSpace=wrap;html=1;fontColor=#FF0000;" vertex="1" parent="1">
                    <mxGeometry x="670" y="70" width="100" height="30" as="geometry"/>
                </mxCell>
                <mxCell id="106" value="warn!" style="rounded=0;whiteSpace=wrap;html=1;fontColor=#FF0000;" vertex="1" parent="1">
                    <mxGeometry x="670" y="160" width="100" height="30" as="geometry"/>
                </mxCell>
                <mxCell id="107" value="log门面库&lt;br style=&quot;font-size: 13px;&quot;&gt;&lt;b style=&quot;font-size: 13px;&quot;&gt;&lt;font color=&quot;#ff0000&quot; style=&quot;font-size: 13px;&quot;&gt;static LOGGER = logger&lt;/font&gt;&lt;/b&gt;" style="rounded=0;whiteSpace=wrap;html=1;fillColor=#d5e8d4;strokeColor=#82b366;fontSize=13;" vertex="1" parent="1">
                    <mxGeometry x="514" y="305" width="120" height="60" as="geometry"/>
                </mxCell>
                <mxCell id="108" value="trace!" style="rounded=0;whiteSpace=wrap;html=1;fillColor=#d5e8d4;strokeColor=#82b366;" vertex="1" parent="1">
                    <mxGeometry x="670" y="70" width="100" height="30" as="geometry"/>
                </mxCell>
                <mxCell id="109" value="warn!" style="rounded=0;whiteSpace=wrap;html=1;fillColor=#d5e8d4;strokeColor=#82b366;" vertex="1" parent="1">
                    <mxGeometry x="670" y="160" width="100" height="30" as="geometry"/>
                </mxCell>
                <mxCell id="110" value="日志埋点" style="text;html=1;strokeColor=none;fillColor=none;align=center;verticalAlign=middle;whiteSpace=wrap;rounded=0;fontColor=#FF0000;fontStyle=1;fontSize=13;" vertex="1" parent="1">
                    <mxGeometry x="690" y="220" width="60" height="30" as="geometry"/>
                </mxCell>
                <mxCell id="112" value="" style="endArrow=classic;html=1;fontColor=#FF0000;entryX=0;entryY=0.5;entryDx=0;entryDy=0;exitX=1;exitY=0.5;exitDx=0;exitDy=0;" edge="1" parent="1" source="67" target="73">
                    <mxGeometry width="50" height="50" relative="1" as="geometry">
                        <mxPoint x="300" y="505" as="sourcePoint"/>
                        <mxPoint x="350" y="455" as="targetPoint"/>
                    </mxGeometry>
                </mxCell>
                <mxCell id="113" value="init()" style="endArrow=classic;html=1;fontColor=#FF0000;entryX=0;entryY=0;entryDx=0;entryDy=0;exitX=1;exitY=1;exitDx=0;exitDy=0;fontSize=13;" edge="1" parent="1" source="71" target="107">
                    <mxGeometry width="50" height="50" relative="1" as="geometry">
                        <mxPoint x="480" y="230" as="sourcePoint"/>
                        <mxPoint x="350" y="480" as="targetPoint"/>
                    </mxGeometry>
                </mxCell>
                <mxCell id="114" value="env_logger::from_env" style="rounded=0;whiteSpace=wrap;html=1;fontColor=#ffffff;fillColor=#6d8764;strokeColor=#3A5431;fontStyle=1;fontSize=13;" vertex="1" parent="1">
                    <mxGeometry x="60" y="280" width="170" height="35" as="geometry"/>
                </mxCell>
                <mxCell id="116" value="env_logger::init_*" style="rounded=0;whiteSpace=wrap;html=1;fontColor=#ffffff;fillColor=#6d8764;strokeColor=#3A5431;fontStyle=1;fontSize=13;" vertex="1" parent="1">
                    <mxGeometry x="60" y="315.5" width="170" height="35" as="geometry"/>
                </mxCell>
                <mxCell id="117" value="env_logger::try_init_*" style="rounded=0;whiteSpace=wrap;html=1;fontColor=#ffffff;fillColor=#6d8764;strokeColor=#3A5431;fontStyle=1;fontSize=13;" vertex="1" parent="1">
                    <mxGeometry x="60" y="349.5" width="170" height="35" as="geometry"/>
                </mxCell>
                <mxCell id="118" value="" style="endArrow=classic;html=1;fontColor=#FF0000;exitX=1;exitY=0.5;exitDx=0;exitDy=0;entryX=0;entryY=0.5;entryDx=0;entryDy=0;fontSize=13;" edge="1" parent="1" source="116" target="107">
                    <mxGeometry width="50" height="50" relative="1" as="geometry">
                        <mxPoint x="470" y="530" as="sourcePoint"/>
                        <mxPoint x="520" y="480" as="targetPoint"/>
                    </mxGeometry>
                </mxCell>
                <mxCell id="120" value="快捷函数" style="text;html=1;strokeColor=none;fillColor=none;align=center;verticalAlign=middle;whiteSpace=wrap;rounded=0;fontColor=#FF0000;fontSize=13;" vertex="1" parent="1">
                    <mxGeometry x="230" y="285.5" width="60" height="30" as="geometry"/>
                </mxCell>
                <mxCell id="121" value="Rust日志env_logger" style="text;html=1;strokeColor=none;fillColor=none;align=center;verticalAlign=middle;whiteSpace=wrap;rounded=0;fontColor=#000000;fontStyle=1;fontSize=15;" vertex="1" parent="1">
                    <mxGeometry x="354" y="20" width="156" height="30" as="geometry"/>
                </mxCell>
                <mxCell id="122" value="env_logger::Builder" style="rounded=0;whiteSpace=wrap;html=1;fontColor=#ffffff;fillColor=#6d8764;strokeColor=#3A5431;fontStyle=1;fontSize=13;" vertex="1" parent="1">
                    <mxGeometry x="60" y="245" width="170" height="35" as="geometry"/>
                </mxCell>
                <mxCell id="127" value="" style="endArrow=none;dashed=1;html=1;fontSize=13;fontColor=#000000;strokeColor=#CC6600;" edge="1" parent="1">
                    <mxGeometry width="50" height="50" relative="1" as="geometry">
                        <mxPoint y="400" as="sourcePoint"/>
                        <mxPoint x="800" y="400" as="targetPoint"/>
                    </mxGeometry>
                </mxCell>
                <mxCell id="128" value="①&lt;br&gt;用&lt;br&gt;户&lt;br&gt;接&lt;br&gt;口" style="text;html=1;align=center;verticalAlign=middle;resizable=0;points=[];autosize=1;strokeColor=none;fillColor=none;fontSize=13;fontColor=#CC6600;fontStyle=1" vertex="1" parent="1">
                    <mxGeometry x="10" y="150" width="40" height="90" as="geometry"/>
                </mxCell>
                <mxCell id="129" value="①&lt;br&gt;自&lt;br&gt;定&lt;br&gt;义&lt;br&gt;配&lt;br&gt;置" style="text;html=1;align=center;verticalAlign=middle;resizable=0;points=[];autosize=1;strokeColor=none;fillColor=none;fontSize=13;fontColor=#CC6600;fontStyle=1" vertex="1" parent="1">
                    <mxGeometry x="10" y="580" width="40" height="110" as="geometry"/>
                </mxCell>
                <mxCell id="130" value="自定义过滤器" style="endArrow=classic;html=1;dashed=1;strokeColor=#CC6600;fontSize=12;fontColor=#000000;exitX=0;exitY=0.5;exitDx=0;exitDy=0;" edge="1" parent="1" source="62">
                    <mxGeometry x="-0.0189" y="-30" width="50" height="50" relative="1" as="geometry">
                        <mxPoint x="470" y="490" as="sourcePoint"/>
                        <mxPoint x="60" y="400" as="targetPoint"/>
                        <Array as="points">
                            <mxPoint x="60" y="880"/>
                        </Array>
                        <mxPoint as="offset"/>
                    </mxGeometry>
                </mxCell>
                <mxCell id="131" value="自定义环境信息" style="endArrow=classic;html=1;dashed=1;strokeColor=#CC6600;fontSize=12;fontColor=#000000;exitX=0.25;exitY=0;exitDx=0;exitDy=0;" edge="1" parent="1" source="11">
                    <mxGeometry width="50" height="50" relative="1" as="geometry">
                        <mxPoint x="470" y="490" as="sourcePoint"/>
                        <mxPoint x="140" y="400" as="targetPoint"/>
                    </mxGeometry>
                </mxCell>
            </root>
        </mxGraphModel>
    </diagram>
</mxfile>